<svg width="128" height="128" viewBox="0 0 128 128" fill="none" xmlns="http://www.w3.org/2000/svg">
<path d="M102.619 92.5112C100.808 90.0888 98.1302 88.2265 94.2436 88.8337C85.2599 90.2374 90.0325 83.2189 83.5755 86.0263C78.4099 88.2723 74.6854 94.6357 73.4689 97.5367C73.0945 95.7587 71.6721 91.8657 68.977 90.5182C65.6081 88.8337 64.4852 91.6412 62.52 88.8337C60.5548 86.0263 60.5548 82.096 58.8704 78.1656C57.1859 74.2353 64.4852 68.3397 68.977 70.5856C73.4689 72.8316 76.2763 71.4278 78.5222 74.7967C80.7681 78.1656 83.5755 82.3767 83.5755 70.5856C83.5755 58.7945 89.1903 53.4605 91.717 53.7412C94.2436 54.0219 102.104 51.2139 100.701 48.4071C99.297 45.6003 91.717 44.196 91.717 41.6694C91.717 39.1427 95.0859 33.8093 91.717 31.2827C88.3481 28.756 79.9259 23.7027 73.4689 24.2642C67.0118 24.8256 65.0224 27.354 65.0224 29.5999C65.0224 31.8458 73.4689 36.0575 68.977 38.8635C64.4852 41.6694 49.8867 46.1597 49.8867 41.6694C49.8867 37.179 49.0445 27.6339 51.8519 27.6339C54.6593 27.6339 55.5015 20.6153 57.1859 20.8961C58.8704 21.1768 65.8889 18.0905 68.977 19.4933C69.9238 19.9234 73.0344 19.1134 76.537 17.6538M102.619 92.5112C108.514 84.5389 112 74.6765 112 64C112 41.8278 96.9667 23.1667 76.537 17.6538M102.619 92.5112C93.8758 104.334 79.8331 112 64 112C61.1812 112 58.4191 111.757 55.7336 111.291M55.7336 111.291C56.0964 109.202 56.571 107.477 57.1859 106.52C59.7126 102.59 68.1348 105.397 68.977 103.432C69.8192 101.467 66.1696 99.2211 62.52 97.5367C58.8704 95.8522 52.6941 94.1678 51.8519 86.0263C51.0096 77.8849 47.0793 79.2886 46.2371 78.1656C45.3948 77.0427 35.5689 73.9545 32.4799 68.3397C29.3909 62.7249 32.4808 53.1797 32.4799 50.6531C32.4793 48.867 24.7349 46.9497 19.5107 45.9467M55.7336 111.291C33.1631 107.373 16 87.6909 16 64C16 57.6143 17.247 51.5198 19.5107 45.9467M19.5107 45.9467C26.6446 28.384 43.8761 16 64 16C68.3374 16 72.5405 16.5753 76.537 17.6538" stroke="#F2F2F2" stroke-width="4" stroke-linecap="square" stroke-linejoin="round"/>
</svg>
